<svg id="myLogo" xmlns="http://www.w3.org/2000/svg" viewBox="0 0 640 480"><defs><style>.cls-1{fill:#d64652}.cls-2{fill:#f1c234}.cls-3{fill:#d1a22f}.cls-4{fill:#af8528}.cls-5{fill:#2fb2b1}.cls-6{fill:#23756d}.cls-7{fill:#26847d}.cls-8{fill:#2a938e}</style></defs><title>Andrew Y Han Logo</title><path class="cls-1" d="M612 351.79a72.79 72.79 0 0 1-72.79 72.79H99.79A72.79 72.79 0 0 1 27 351.79v-224A72.79 72.79 0 0 1 99.79 55h439.42A72.79 72.79 0 0 1 612 127.79" id="background"/><g id="AH"><g id="H"><path id="front" class="cls-2" d="M567 164.21v225h-75l-21.6-54h-16.8l-21.6 54h-75v-225h75l22.5 45h15l22.5-45h75z"/><path id="right-top" class="cls-3" d="M492 89.21l75 75h-75l-75-75h75z"/><path id="valley" class="cls-3" d="M469.5 209.21h-15l-13.5-27 28.5 27z"/><path id="right-edge" class="cls-4" d="M492 164.21l-22.5 45-28.5-27-9-18-30-30 15-45 75 75z"/><path id="left-top" class="cls-3" d="M357 89.21h-75l75 75h75l-75-75z"/><path id="side" class="cls-4" d="M282 314.21v-225l75 75v225l-75-75z"/></g><g id="A"><path id="font" class="cls-5" d="M147 224.21v165L251.99 334 357 389.21v-165l-60-60h-90l-60 60z"/><path id="side-2" data-name="side" class="cls-6" d="M72 149.21v164.31l75 75.69v-165l-75-75z"/><path id="edge" class="cls-7" transform="rotate(-45 139.5 156.707)" d="M97.07 103.68h84.85v106.07H97.07z"/><path id="top" class="cls-8" d="M222 89.21l75 75h-90l-75-75h90z"/></g></g></svg>