<svg id="myLogo" xmlns="http://www.w3.org/2000/svg" viewBox="0 0 640 480">
    <defs>
        <style>.cls-1{fill:#d64652;}.cls-2{fill:#f1c234;}.cls-3{fill:#d1a22f;}.cls-4{fill:#af8528;}.cls-5{fill:#2fb2b1;}.cls-6{fill:#23756d;}.cls-7{fill:#26847d;}.cls-8{fill:#2a938e;}</style>
    </defs>
    <title>Andrew Y Han Logo</title>
    <g id="background">
        <path class="cls-1" d="M612,351.79a72.79,72.79,0,0,1-72.79,72.79H99.79A72.79,72.79,0,0,1,27,351.79v-224A72.79,72.79,0,0,1,99.79,55H539.21A72.79,72.79,0,0,1,612,127.79" />
    </g>
    <g id="AH">
        <g id="H">
            <polygon id="front" class="cls-2" points="567 164.21 567 389.21 492 389.21 470.4 335.21 453.6 335.21 432 389.21 357 389.21 357 164.21 432 164.21 454.5 209.21 469.5 209.21 492 164.21 567 164.21" />
            <polygon id="right-top" class="cls-3" points="492 89.21 567 164.21 492 164.21 417 89.21 492 89.21" />
            <polygon id="valley" class="cls-3" points="469.5 209.21 454.5 209.21 441 182.21 469.5 209.21" />
            <polygon id="right-edge" class="cls-4" points="492 164.21 469.5 209.21 441 182.21 432 164.21 402 134.21 417 89.21 492 164.21" />
            <polygon id="left-top" class="cls-3" points="357 89.21 282 89.21 357 164.21 432 164.21 357 89.21" />
            <polygon id="side" class="cls-4" points="282 314.21 282 89.21 357 164.21 357 389.21 282 314.21" />
        </g>
        <g id="A">
            <polygon id="font" class="cls-5" points="147 224.21 147 389.21 251.99 334 357 389.21 357 224.21 297 164.21 207 164.21 147 224.21" />
            <polygon id="side-2" data-name="side" class="cls-6" points="72 149.21 72 313.52 147 389.21 147 224.21 72 149.21" />
            <rect id="edge" class="cls-7" x="97.07" y="103.68" width="84.85" height="106.07" transform="translate(-69.95 144.54) rotate(-45)" />
            <polygon id="top" class="cls-8" points="222 89.21 297 164.21 207 164.21 132 89.21 222 89.21" />
        </g>
    </g>
</svg>